PathFileType	4	(X/Y/Z)	C:\Users\WrightLab\Desktop\Jo\P4V110.trc
DataRate	CameraRate	NumFrames	NumMarkers	Units	OrigDataRate	OrigDataStartFrame	OrigNumFrames
100.00	100.00	       32	19	mm	100.00	1	       633
Frame#	Time	Headset_Front			Headset_Back			Headset_Left			Headset_Right			Left_Shoulder			Right_Shoulder			Sternum			C7			Left Elbow			Right Elbow			Left Wrist			Right Wrist			Left ASIS			Right ASIS			S2			Left Knee			Right Knee			Left Ankle			Right Ankle			
		X1	Y1	Z1	X2	Y2	Z2	X3	Y3	Z3	X4	Y4	Z4	X5	Y5	Z5	X6	Y6	Z6	X7	Y7	Z7	X8	Y8	Z8	X9	Y9	Z9	X10	Y10	Z10	X11	Y11	Z11	X12	Y12	Z12	X13	Y13	Z13	X14	Y14	Z14	X15	Y15	Z15	X16	Y16	Z16	X17	Y17	Z17	X18	Y18	Z18	X19	Y19	Z19	

1	0.000																									242.32021	1146.72778	-1589.23645																			93.51107	510.25333	-1537.15076	-235.79565	517.43597	-1522.48938							
2	0.010																									242.57635	1147.04346	-1588.00647																			93.51154	510.27310	-1537.14807	-235.77968	517.47644	-1522.38599							
3	0.020																									242.94244	1147.92310	-1587.82117																			93.50540	510.26361	-1537.20898	-235.77841	517.48096	-1522.37793							
4	0.030																									242.68793	1148.93823	-1587.77124																			93.49899	510.25784	-1537.27307	-235.77734	517.45703	-1522.36511							
5	0.040																									242.80080	1149.28235	-1586.26453																			93.49295	510.23633	-1537.33167	-235.78101	517.47180	-1522.39417							
6	0.050																									242.98488	1149.69507	-1584.50549																			93.48885	510.23074	-1537.37244	-235.79788	517.43518	-1522.50500							
7	0.060																									243.09831	1150.16602	-1582.40295																			93.47445	510.20108	-1537.51453	-235.76926	517.51318	-1522.32068							
8	0.070																									243.15598	1150.65845	-1580.14368																			93.47545	510.22525	-1537.50696	-235.77057	517.50848	-1522.32898							
9	0.080																									243.23390	1151.18689	-1577.73608																			93.46531	510.21323	-1537.60791	-235.77649	517.49640	-1522.36792							
10	0.090																									243.26685	1151.73157	-1575.20740																			93.45691	510.19397	-1537.69055	-235.76926	517.51318	-1522.32068							
11	0.100																									242.86292	1152.98450	-1573.88208																			93.45893	510.18854	-1537.66956	-235.76268	517.53632	-1522.27954							
12	0.110																									242.98923	1153.61902	-1571.02087																			93.44872	510.17084	-1537.77063	-235.77794	517.48956	-1522.37659							
13	0.120																									243.12253	1154.26160	-1568.12891																			93.44485	510.16153	-1537.80872	-235.77283	517.53754	-1522.35144							
14	0.130																									243.32040	1154.92798	-1565.18872																			93.45386	510.19806	-1537.72168	-235.76328	517.55927	-1522.28882							
15	0.140																									243.53622	1155.61353	-1562.17603																			93.45108	510.19302	-1537.74915	-235.77182	517.56067	-1522.34949							
16	0.150																									243.77306	1156.32007	-1559.08508																			93.45902	510.18872	-1537.66870	-235.78712	517.50684	-1522.44531							
17	0.160																									244.00089	1157.03040	-1555.96741																			93.45630	510.19992	-1537.69727	-235.80505	517.47961	-1522.56555							
18	0.170																									244.18503	1157.71484	-1552.92859																			93.45883	510.19116	-1537.67090	-235.79294	517.54895	-1522.49573							
19	0.180																									244.37749	1158.40564	-1549.86792																			93.45930	510.20520	-1537.66760	-235.79976	517.52826	-1522.53918							
20	0.190																									244.01367	1159.23889	-1547.20654																			93.46191	510.20871	-1537.64160	-235.81729	517.48547	-1522.65320							
21	0.200																									244.14973	1159.90063	-1544.22668																			93.47025	510.21976	-1537.55872	-235.80856	517.50970	-1522.59705							
22	0.210																									243.45567	1161.71985	-1543.76880																			93.45712	510.18201	-1537.68713	-235.78156	517.51959	-1522.40881							
23	0.220																									242.14792	1163.46509	-1543.55994																			93.46586	510.21124	-1537.60217	-235.80595	517.47986	-1522.57202							
24	0.230																									242.13580	1165.53979	-1543.74536																			93.46989	510.21927	-1537.56238	-235.81903	517.43927	-1522.65503							
25	0.240																									242.15575	1166.10791	-1541.08130																			93.47442	510.22525	-1537.51733	-235.81049	517.46918	-1522.60156							
26	0.250																									242.20142	1166.64709	-1538.57886																			93.47484	510.22586	-1537.51318	-235.83615	517.37921	-1522.76233							
27	0.260																									242.18474	1167.12915	-1536.28540																			93.47820	510.23026	-1537.47974	-235.82666	517.35687	-1522.69019							
28	0.270																									242.19742	1167.62939	-1533.93481																			93.48022	510.22888	-1537.45923	-235.80554	517.40991	-1522.55322							
29	0.280																									242.17096	1168.07361	-1531.81104																			93.47086	510.21783	-1537.55237	-235.82253	517.41010	-1522.67310							
30	0.290																									242.10092	1168.47095	-1529.86597																			93.47128	510.21301	-1537.54773	-235.83363	517.36560	-1522.74133							
31	0.300																									241.54243	1169.50598	-1529.37512																			93.47467	510.21750	-1537.51404	-235.84212	517.38495	-1522.80566							
32	0.310																									241.47862	1169.85950	-1527.64282																			93.47604	510.21106	-1537.49951	-235.83757	517.34967	-1522.76563							
